<svg xmlns="http://www.w3.org/2000/svg" viewBox="0 0 24.08 23.07"><defs><style>.cls-1{fill:red;}.cls-2{fill:none;}</style></defs><title>退出</title><g id="图层_2" data-name="图层 2"><g id="图层_1-2" data-name="图层 1"><path class="cls-1" d="M14.2,20.51H3.42a.83.83,0,0,1-.89-.7V3.25a.82.82,0,0,1,.89-.7H14.26a1.26,1.26,0,0,0,0-2.53H3.42A3.33,3.33,0,0,0,0,3.25V19.8A3.33,3.33,0,0,0,3.42,23H14.2a1.26,1.26,0,1,0,0-2.52Zm0,0"/><path class="cls-1" d="M23.77,10.27l-4.23-3.4a.79.79,0,0,0-1.29.62V9.66H8.34a1.26,1.26,0,0,0,0,2.53h9.92v2.09a.79.79,0,0,0,1.29.62l4.23-3.4a.79.79,0,0,0,0-1.23Zm0,0"/><rect class="cls-2" width="24.08" height="23.07"/></g></g></svg>